<svg xmlns="http://www.w3.org/2000/svg" viewBox="0 0 429.043 257.689">
  <defs>
    <style>
      .cls-1 {
        fill: #14a8d5;
      }

      .cls-2 {
        fill: #fff;
        font-size: 68px;
        font-family: Futura-Medium, Futura;
        font-weight: 500;
      }

      .cls-3 {
        font-size: 10px;
      }
    </style>
  </defs>
  <g id="Group_8" data-name="Group 8" transform="translate(-129.957 -469)">
    <path id="plane" d="M158.982,11.772c.956,1.555,1.021,7.806-39.252,22.037L80.245,47.763C66.5,52.622,46.562,59.012,37.77,60.779c-6.156,1.234-12.031-1.912-12.031-1.912S8.01,46.916,3.3,44.229-1,40.175,5.028,38.723c3.753-.9,25.155,2.983,34.277,4.72C50.067,38.6,59.9,34.451,64.549,32.563,53.329,26.313,32.337,14.64,25.643,11.082c-6.421-3.419.08-4.647.08-4.647,2.958-.6,9.339-1.38,12.554-.871C60.145,9.007,96.648,18.1,99.445,18.791c6.687-2.638,17.1-6.608,23.484-8.865C139.605,4.033,157.7,9.7,158.982,11.772Z" transform="translate(292.129 584.765) rotate(-42)"/>
    <path id="Subtraction_7" data-name="Subtraction 7" class="cls-1" d="M247.191,98.806H0V97.723H.1A9.711,9.711,0,0,1,0,96.365c0-4.79,3.554-9.407,10.278-13.353,6.564-3.852,15.711-6.829,26.453-8.61a34.836,34.836,0,0,1-.292-4.507,34.385,34.385,0,0,1,2.9-13.88A35.5,35.5,0,0,1,47.255,44.68a36.908,36.908,0,0,1,11.739-7.642,37.833,37.833,0,0,1,14.375-2.8,38.72,38.72,0,0,1,4.735.29A58.932,58.932,0,0,1,98.276,9.613,52.615,52.615,0,0,1,128.52,0a51.96,51.96,0,0,1,18.5,3.392,54.388,54.388,0,0,1,15.87,9.4,58.7,58.7,0,0,1,12.16,14.254,61.873,61.873,0,0,1,7.371,17.945c17.71,1.318,34.063,6.965,46.045,15.9a50.67,50.67,0,0,1,13.725,14.915,35.127,35.127,0,0,1,5,17.858,33.6,33.6,0,0,1-.246,4.054h.246V98.8Z" transform="translate(129.957 571.195)"/>
    <path id="Subtraction_9" data-name="Subtraction 9" d="M39.334,169.338c-1.516,0-2.989-.063-4.378-.187a28.146,28.146,0,0,1-12.639-3.833,16.215,16.215,0,0,1-6.868-8.6,25,25,0,0,1-.552-12.408,59.307,59.307,0,0,1,5.337-15.439,122.443,122.443,0,0,1,10.8-17.7A90.736,90.736,0,0,0,24.2,125.392a41.962,41.962,0,0,0-2.707,11.982,17.881,17.881,0,0,0,1.686,9.221,13.294,13.294,0,0,0,6.344,5.945,25.481,25.481,0,0,0,10.86,2.079,56.3,56.3,0,0,0,10.933-1.208A104.685,104.685,0,0,0,65.9,149.246a173.458,173.458,0,0,0,16.367-6.908A279.571,279.571,0,0,0,118.7,121.019a363.268,363.268,0,0,0,37.531-29.524C173.5,75.98,188.051,59.928,198.3,45.073a125.7,125.7,0,0,0,10.4-17.74L221.27,37.4A78.872,78.872,0,0,1,215.5,50.268a134.8,134.8,0,0,1-9.434,14.61c-3.732,5.082-8.018,10.316-12.74,15.557a298.812,298.812,0,0,1-34.485,32.294,351.241,351.241,0,0,1-31.753,22.8,303.884,303.884,0,0,1-31.436,17.559,219.427,219.427,0,0,1-23.028,9.566,134.473,134.473,0,0,1-20.562,5.484A74.771,74.771,0,0,1,39.334,169.338Z" transform="translate(144.394 557.351)"/>
    <text id="dream" class="cls-2" transform="translate(143 540)"><tspan x="0" y="0">dream</tspan></text>
    <text id="f_light" data-name="f light" class="cls-2" transform="translate(387 558)"><tspan x="0" y="71">f</tspan><tspan class="cls-3" y="71"> </tspan><tspan y="71">light</tspan></text>
  </g>
</svg>
